<?xml version="1.0" encoding="UTF-8"?><svg id="uuid-cde8f035-f87a-4d78-adbb-722f7a5663fe" xmlns="http://www.w3.org/2000/svg" viewBox="0 0 26.98 26.91"><defs><style>.uuid-db8ae1ff-e27f-44f1-90ed-e50b6fefdd14{fill:#fff;}</style></defs><g id="uuid-54a6cc32-e599-4312-af1d-57958d60fb94"><g><path class="uuid-db8ae1ff-e27f-44f1-90ed-e50b6fefdd14" d="M14.51,24.55l-.09-10.14,10.14-.09c.51,0,.92-.42,.91-.93,0-.51-.42-.92-.93-.91l-10.14,.09-.09-10.14c0-.51-.42-.92-.93-.91-.51,0-.92,.42-.91,.93l.09,10.14-10.14,.09c-.51,0-.92,.42-.91,.93,0,.51,.42,.92,.93,.91l10.14-.09,.09,10.14c0,.51,.42,.92,.93,.91,.51,0,.92-.42,.91-.93Z"/><path class="uuid-db8ae1ff-e27f-44f1-90ed-e50b6fefdd14" d="M16.01,24.55l-.09-10.14-1.5,1.5c3.3-.03,6.63,.07,9.93-.09,1.13-.05,2.18-.57,2.53-1.74,.47-1.6-.79-3.02-2.35-3.1s-3.22,.03-4.82,.04l-5.31,.05,1.5,1.5c-.03-3.3,.07-6.63-.09-9.93-.05-1.13-.57-2.18-1.74-2.53-1.6-.47-3.02,.79-3.1,2.35s.03,3.22,.04,4.82l.05,5.31,1.5-1.5c-3.3,.03-6.63-.07-9.93,.09-1.13,.05-2.18,.57-2.53,1.74-.47,1.6,.79,3.02,2.35,3.1s3.22-.03,4.82-.04l5.31-.05-1.5-1.5,.06,7.48c0,.88-.04,1.78,.02,2.66,.2,2.8,4.34,3.3,4.79,.39,.29-1.89-2.6-2.7-2.89-.8,.74,.67,1.11,.79,1.1,.39v-.08c.03-.08-.01-.23,0-.32,.04-.37,0-.77,0-1.15l-.03-3.49-.04-5.07c0-.81-.68-1.51-1.5-1.5l-5.07,.04-3.49,.03c-.37,0-.78-.05-1.15,0-.51,.08-.43-.24-.44,.58s-.09,.5,.42,.57c.37,.05,.78,0,1.15,0l3.49-.03,5.07-.04c.81,0,1.51-.68,1.5-1.5l-.04-5.07-.03-3.49c0-.37,.05-.78,0-1.15-.08-.51,.24-.43-.58-.44s-.5-.09-.57,.42c-.05,.37,0,.78,0,1.15l.03,3.49,.04,5.07c0,.81,.68,1.51,1.5,1.5l5.07-.04,3.49-.03c.37,0,.78,.05,1.15,0,.51-.08,.43,.24,.44-.58s.09-.5-.42-.57c-.37-.05-.78,0-1.15,0l-3.49,.03-5.07,.04c-.81,0-1.51,.68-1.5,1.5l.09,10.14c.02,1.93,3.02,1.93,3,0Z"/></g></g></svg>