<?xml version="1.0" encoding="UTF-8"?><svg id="uuid-ac2bfb23-fb5f-45a6-93dd-eb073980f033" xmlns="http://www.w3.org/2000/svg" viewBox="0 0 16.04 18.85"><defs><style>.uuid-c5f5765a-d1b1-4d7c-83d7-4ad5b3ce8694{fill:#fff;}</style></defs><g id="uuid-792d3793-bd48-4036-88b0-fe72e6d9f84f"><g><path class="uuid-c5f5765a-d1b1-4d7c-83d7-4ad5b3ce8694" d="M1.68,6.14v10.2c0,1.38,1.11,2.5,2.49,2.5h7.7c1.38,0,2.5-1.12,2.5-2.5V6.14H1.68Zm3.98,9.39c0,.49-.4,.9-.9,.9s-.9-.41-.9-.9v-6.08c0-.5,.41-.9,.9-.9s.9,.4,.9,.9v6.08Zm3.26,0c0,.49-.4,.9-.9,.9s-.9-.41-.9-.9v-6.08c0-.5,.41-.9,.9-.9s.9,.4,.9,.9v6.08Zm3.26,0c0,.49-.4,.9-.9,.9s-.9-.41-.9-.9v-6.08c0-.5,.41-.9,.9-.9s.9,.4,.9,.9v6.08Z"/><path class="uuid-c5f5765a-d1b1-4d7c-83d7-4ad5b3ce8694" d="M1.92,2.66H14.12c1.06,0,1.92,.86,1.92,1.92H0C0,3.52,.86,2.66,1.92,2.66Z"/><path class="uuid-c5f5765a-d1b1-4d7c-83d7-4ad5b3ce8694" d="M7.26,0h1.51C9.5,0,10.08,.59,10.08,1.31H5.95C5.95,.59,6.54,0,7.26,0Z"/></g></g></svg>