<?xml version="1.0" encoding="UTF-8"?><svg id="uuid-ce0f8362-6fa0-4a6d-af9b-e272de95ff5f" xmlns="http://www.w3.org/2000/svg" viewBox="0 0 33.2 33.17"><defs><style>.uuid-a850a4d9-631a-478c-ac48-7877a2a62b97{fill:#fff;}</style></defs><g id="uuid-41d675f9-0695-48cd-9459-681800b62305"><path class="uuid-a850a4d9-631a-478c-ac48-7877a2a62b97" d="M32.15,13.95l-2.09-.03c-.25-.01-.45-.17-.5-.41-.35-1.47-.96-2.91-1.81-4.22-.14-.2-.11-.48,.06-.65l1.39-1.41c.42-.42,.41-1.1,0-1.51l-2.17-2.16c-.42-.42-1.1-.41-1.52,0l-1.47,1.48c-.17,.17-.44,.2-.64,.07-.82-.47-1.67-.86-2.55-1.16-.01,0-.03-.01-.05-.02l-.12-.03c-.07-.03-.14-.05-.21-.07h-.01c-.35-.11-.71-.2-1.08-.28-.24-.05-.41-.26-.41-.51V1.08c0-.59-.49-1.08-1.08-1.08h-3.07c-.58,0-1.07,.49-1.07,1.08V3.17c0,.24-.16,.45-.4,.51-1.01,.25-1.98,.63-2.89,1.1-.03,.01-.05,.02-.07,.03-.04,.02-.07,.04-.11,.07-.06,.03-.13,.06-.19,.1-.01,0-.02,.01-.03,.01-.21,.12-.42,.25-.64,.39-.2,.13-.48,.11-.65-.07l-1.39-1.41c-.41-.42-1.1-.42-1.52,0l-2.18,2.15c-.42,.42-.42,1.1-.01,1.52l1.48,1.49c.17,.17,.19,.43,.07,.64-.55,.91-.99,1.87-1.3,2.87-.01,.02-.02,.05-.03,.07-.01,.06-.03,.11-.05,.17-.01,.04-.02,.09-.03,.13t-.01,.02c-.07,.24-.13,.49-.18,.74-.06,.24-.27,.42-.52,.41l-1.98-.02c-.59,0-1.07,.48-1.08,1.07l-.03,3.06c0,.59,.48,1.08,1.06,1.08l2.1,.02c.24,0,.44,.18,.5,.41,.36,1.48,.96,2.86,1.77,4.09,.13,.22,.11,.49-.07,.66l-1.39,1.39c-.42,.42-.42,1.1,0,1.52l2.16,2.17c.42,.42,1.1,.42,1.52,0l1.48-1.47c.17-.17,.43-.2,.64-.08,1.22,.73,2.57,1.27,4,1.58,.24,.05,.42,.26,.42,.51v1.98c-.01,.59,.47,1.07,1.06,1.07l3.06,.02c.59,0,1.07-.47,1.08-1.06v-2.1c.01-.24,.18-.44,.41-.5,.87-.22,1.71-.52,2.5-.9,.01,0,.02,0,.02-.01,.06-.02,.12-.05,.18-.08,.02-.01,.03-.02,.04-.02,.06-.03,.11-.06,.17-.08,.02-.01,.03-.02,.05-.03,.05-.03,.1-.05,.15-.08l.06-.03s.09-.06,.14-.08c.02-.02,.04-.03,.06-.04,.05-.03,.1-.05,.14-.08,.01,0,.02-.01,.03-.01,0,0,0,0,.01,0,0,0,.01-.01,.02-.01,.07-.04,.13-.08,.2-.12,.01-.01,.02-.01,.03-.02l.29-.18,.03-.03s.04-.03,.06-.04c.03-.02,.05-.03,.07-.05,.01,0,.03-.01,.04-.02l1.68,1.72c.41,.42,1.09,.43,1.52,0l2.19-2.14c.42-.41,.43-1.09,0-1.51l-1.46-1.5c-.17-.17-.19-.44-.07-.64,.31-.5,.57-1.01,.81-1.53,0-.02,.01-.04,.02-.06,.02-.05,.05-.11,.07-.16,.02-.04,.03-.07,.05-.11l.06-.18c.03-.06,.06-.13,.08-.2,.02-.03,.03-.06,.04-.1,.02-.06,.05-.13,.07-.19,.01-.03,.02-.05,.02-.08,.04-.09,.07-.18,.1-.27h0c.03-.11,.06-.2,.09-.29,0-.02,.01-.03,.01-.05,.03-.09,.06-.19,.08-.28,0-.01,0-.03,0-.04h0c.05-.19,.09-.37,.13-.56,.01-.04,.02-.08,.03-.11,.01-.04,.01-.08,.02-.12,.01-.02,.01-.05,.02-.07l2.4,.03c.59,.01,1.08-.47,1.09-1.06l.04-3.07c.01-.58-.46-1.07-1.05-1.08Zm-15.55,9.34c-3.7,0-6.7-3-6.7-6.7s3-6.7,6.7-6.7,6.7,3,6.7,6.7-3,6.7-6.7,6.7Z"/></g></svg>